<?xml version="1.0" encoding="utf-8"?>
<!-- Generator: Adobe Illustrator 22.0.1, SVG Export Plug-In . SVG Version: 6.00 Build 0)  -->
<svg version="1.1" id="Layer_1" xmlns="http://www.w3.org/2000/svg" xmlns:xlink="http://www.w3.org/1999/xlink" x="0px" y="0px"
	 viewBox="0 0 568.6 368.6" style="enable-background:new 0 0 568.6 368.6;" xml:space="preserve">
<g>
	<g>
		<path d="M65.7,193.2V224h49.3v21.8H65.7v50.8H41.3v-125h82.4v21.8H65.7z"/>
		<path d="M138.5,189.4v-18.6h23.4v18.6H138.5z M138.8,296.5V205h22.8v91.5H138.8z"/>
		<path d="M232.4,229.9c-3.5-3.5-6.5-5.4-12.1-5.4c-7,0-14.8,5.3-14.8,16.9v55.1h-22.8V205H205v8.8c4.4-5.3,13.2-9.8,23-9.8
			c9,0,15.3,2.3,21.6,8.6L232.4,229.9z"/>
		<path d="M270.7,257.9c0,11.8,7.2,20.4,20,20.4c10,0,14.9-2.8,20.7-8.6l13.9,13.5c-9.3,9.3-18.3,14.4-34.8,14.4
			c-21.6,0-42.3-9.8-42.3-46.9c0-29.9,16.2-46.7,39.9-46.7c25.5,0,39.9,18.6,39.9,43.7v10.2H270.7z M303.4,232.4
			c-2.5-5.4-7.6-9.5-15.3-9.5c-7.7,0-12.8,4-15.3,9.5c-1.4,3.3-1.9,5.8-2.1,9.8h34.8C305.3,238.2,304.8,235.7,303.4,232.4z"/>
		<path d="M369.6,225v71.5h-22.8V225h-9.5v-17.4h9.5v-11.4c0-13,8.1-26.2,26.7-26.2h13v19.3h-8.8c-5.4,0-8.1,3-8.1,8.3v10h16.9V225
			H369.6z M428.4,296.5c-18.8,0-26.7-13.2-26.7-26.2v-98.9h22.8v97.5c0,5.4,2.3,8.3,8.1,8.3h8.8v19.3H428.4z"/>
		<path d="M488.1,311.3c-1.9,5.1-4,9-6.8,11.8c-5.3,5.3-12.1,7-19.7,7h-9v-20.5h5.3c6.5,0,9.1-1.6,11.4-8.3l3.9-11.2l-31.3-85H466
			l19,56.5l18.3-56.5h24.1L488.1,311.3z"/>
	</g>
	<g>
		<g>
			<path d="M160.8,128.1c0,0,2.9,2.9,3.8,3.8c6.2,6.2,14.7,9.2,23.3,9.3c10.2,0.1,20.6-3.8,28-11.2l34.6-34.6L222,67L160.8,128.1z"
				/>
			<path d="M278.9,67l-28.5,28.5l34.7,34.7c8.5,8.5,21,12.4,32.5,10.8c6.9-1,13.4-3.9,18.5-9c1-1,3.8-3.8,3.8-3.8L278.9,67z"/>
		</g>
		<g>
			<polygon points="228.5,137.1 222,130.5 250.5,102 278.9,130.5 272.4,137.1 			"/>
		</g>
		<polygon points="250.5,159 232.6,141.1 268.1,141.3 		"/>
	</g>
	<rect x="232.5" y="45.9" transform="matrix(0.7071 0.7071 -0.7071 0.7071 118.5143 -158.395)" width="35.8" height="35.8"/>
</g>
</svg>
